HIERARCHY
ROOT Hips
{
  OFFSET -331.093 83.8371 -317.828
  CHANNELS 6 Xposition Yposition Zposition Zrotation Xrotation Yrotation
  JOINT LeftUpLeg
  {
    OFFSET 8.64259 1.95398 -2.38835
    CHANNELS 3 Zrotation Xrotation Yrotation
    JOINT LeftLeg
    {
      OFFSET 43.7702 0 0
      CHANNELS 3 Zrotation Xrotation Yrotation
      JOINT LeftFoot
      {
        OFFSET 40.6238 0 0
        CHANNELS 3 Zrotation Xrotation Yrotation
        JOINT LeftToeBase
        {
          OFFSET 12.7242 0 0
          CHANNELS 3 Zrotation Xrotation Yrotation
          End Site
          {
            OFFSET 0 0 0
          }
        }
      }
    }
  }
  JOINT RightUpLeg
  {
    OFFSET -8.2249 1.95398 -2.59336
    CHANNELS 3 Zrotation Xrotation Yrotation
    JOINT RightLeg
    {
      OFFSET 43.5653 0 0
      CHANNELS 3 Zrotation Xrotation Yrotation
      JOINT RightFoot
      {
        OFFSET 40.6238 0 0
        CHANNELS 3 Zrotation Xrotation Yrotation
        JOINT RightToeBase
        {
          OFFSET 12.7242 0 0
          CHANNELS 3 Zrotation Xrotation Yrotation
          End Site
          {
            OFFSET 0 0 0
          }
        }
      }
    }
  }
  JOINT Spine
  {
    OFFSET 0.165834 0.87714 6.61349
    CHANNELS 3 Zrotation Xrotation Yrotation
    JOINT Spine1
    {
      OFFSET 7.38963 1.71661e-005 0
      CHANNELS 3 Zrotation Xrotation Yrotation
      JOINT Spine2
      {
        OFFSET 11.9445 1.14441e-005 0
        CHANNELS 3 Zrotation Xrotation Yrotation
        JOINT Spine3
        {
          OFFSET 14.7254 4.19617e-005 0
          CHANNELS 3 Zrotation Xrotation Yrotation
          JOINT Spine4
          {
            OFFSET 10.9679 0 0
            CHANNELS 3 Zrotation Xrotation Yrotation
            JOINT RightShoulder
            {
              OFFSET 2.46616 -1.6653 3.69651
              CHANNELS 3 Zrotation Xrotation Yrotation
              JOINT RightArm
              {
                OFFSET 13.0012 0 0
                CHANNELS 3 Zrotation Xrotation Yrotation
                JOINT RightForeArm
                {
                  OFFSET 28.7848 1.62311e-005 0
                  CHANNELS 3 Zrotation Xrotation Yrotation
                  JOINT RightHand
                  {
                    OFFSET 26.5688 1.62095e-005 0
                    CHANNELS 3 Zrotation Xrotation Yrotation
                    End Site
                    {
                      OFFSET 0 0 0
                    }
                  }
                }
              }
            }
            JOINT LeftShoulder
            {
              OFFSET 2.38034 -1.29275 -3.7523
              CHANNELS 3 Zrotation Xrotation Yrotation
              JOINT LeftArm
              {
                OFFSET 16.3182 6.07031e-005 0
                CHANNELS 3 Zrotation Xrotation Yrotation
                JOINT LeftForeArm
                {
                  OFFSET 27.0901 0 0
                  CHANNELS 3 Zrotation Xrotation Yrotation
                  JOINT LeftHand
                  {
                    OFFSET 24.5451 1.51738e-005 0
                    CHANNELS 3 Zrotation Xrotation Yrotation
                    End Site
                    {
                      OFFSET 0 0 0
                    }
                  }
                }
              }
            }
            JOINT Neck
            {
              OFFSET 5.0226 -0.0266342 0
              CHANNELS 3 Zrotation Xrotation Yrotation
              JOINT Head
              {
                OFFSET 6.69364 2.86102e-005 0
                CHANNELS 3 Zrotation Xrotation Yrotation
                End Site
                {
                  OFFSET 0 0 0
                }
              }
            }
          }
        }
      }
    }
  }
}
MOTION
Frames:	17
Frame Time:	0.0416667
15.9217 91.8557 16.0459 79.3922 -50.0572 83.4619 -166.284 22.5674 93.3972 -98.4783 9.68591 2.97975 54.342 -3.13055 2.73928 32.1814 6.77123 14.4709 174.783 34.1455 100.939 -43.1143 1.05681 1.8148 74.4451 -5.97385 -3.10353 22.8352 -0.136085 -3.58763 -1.00935 9.39862 -89.8377 8.08053 -1.94355 0.431724 -3.58908 -1.92267 0.51686 -26.1357 -1.98342 -0.172585 -6.12305 -1.98342 -0.172578 89.4446 -37.1182 -104.891 30.7675 -15.2913 38.2668 10.3653 1.86664 -104.142 4.73636 0.208176 -6.12133 -97.421 -46.0817 66.9298 26.7214 59.9817 -54.4104 20.0778 -26.1332 -94.8393 3.38517 0.0807205 -1.21918 -11.2785 5.32374 3.95143 22.9735 5.31421 1.10404 
21.9254 91.2217 23.384 76.4638 -48.9461 82.4575 -165.776 38.4409 93.9669 -100.972 9.64308 3.22134 55.3618 -2.45511 2.55964 34.303 9.73402 16.8406 176.909 31.3962 103.362 -46.0465 5.6959 0.0279212 79.7336 -8.62343 -4.00201 28.4649 -0.618953 -5.39193 -0.524119 9.16764 -89.9269 8.53959 -1.01347 0.208619 -3.131 -1.0033 0.253019 -25.6692 -1.02931 -0.105651 -5.65656 -1.02931 -0.105649 88.9713 -37.0353 -105.76 30.7588 -16.1121 39.6216 10.0741 2.66662 -104.4 5.13964 0.200173 -6.25845 -98.4357 -46.7995 65.6664 31.0942 60.0685 -56.4877 17.9482 -26.1532 -94.7784 4.57102 0.0629296 -1.83636 -10.514 4.02476 2.09642 22.5819 4.0429 0.852813 
29.2354 91.7092 31.2532 74.8532 -47.4087 81.2889 -166.239 48.532 92.5518 -94.4748 10.4841 2.38522 59.2683 -0.473239 3.32093 33.9711 9.42247 16.9317 177.957 25.1432 103.09 -44.9616 7.03591 -1.10167 80.2072 -9.28434 -4.24934 36.9023 -1.16028 -5.32875 -0.408021 9.07369 -89.887 8.72744 -0.763844 0.273701 -2.94331 -0.751059 0.307041 -25.4802 -0.810808 0.0314405 -5.46761 -0.810785 0.0314545 88.921 -35.813 -106.274 31.34 -18.8158 37.8544 9.61415 3.2573 -102.198 3.64489 0.18518 -6.78746 -99.3165 -47.3627 64.5646 28.6329 60.6151 -53.2522 17.3954 -25.8865 -95.3084 4.57687 0.14738 -0.453154 -8.78427 3.20672 2.58793 21.6861 2.873 -0.529488 
37.4039 92.8942 39.9496 76.9482 -44.8157 81.261 -168.129 51.422 90.4469 -80.423 11.8431 0.609428 60.4146 -0.725408 3.03096 34.0777 10.4717 19.3878 176.996 15.0153 100.262 -42.1328 3.53039 -1.81129 75.855 -7.04108 -3.58095 44.1786 -1.61672 -5.20592 -0.538723 9.13541 -89.6385 8.60552 -0.914818 0.773601 -3.06536 -0.879881 0.813115 -25.6023 -1.10501 0.462901 -5.5896 -1.10502 0.462881 89.2853 -35.172 -105.838 32.5354 -18.5786 37.4974 10.576 3.29815 -102.186 4.59081 0.201149 -6.48668 -98.7004 -46.9195 65.3151 27.0312 60.9206 -52.1806 16.0328 -25.5361 -95.5106 4.84731 0.10007 -1.35871 -8.04099 2.28177 2.6914 20.1733 1.64272 -2.08953 
45.8314 94.4137 48.7764 77.9423 -41.4364 81.0901 -171.373 51.6787 89.5245 -60.2595 10.0562 -1.52703 56.0207 -4.98085 -1.10318 31.3774 8.00595 20.5717 174.776 5.74504 97.1024 -36.8861 -2.02868 -1.5529 66.6434 -2.19185 -1.36679 46.2289 -1.54628 -4.44785 -0.620649 8.97272 -89.485 8.93227 -1.0084 1.08783 -2.73878 -0.959564 1.13113 -25.2751 -1.28872 0.734456 -5.26247 -1.28873 0.734445 89.4557 -36.1773 -105.186 33.3738 -17.9784 39.6513 10.9933 2.96835 -102.271 4.93828 0.193068 -6.87152 -97.9679 -46.6139 66.298 27.1461 62.1581 -53.5128 15.2299 -25.5438 -95.3082 4.73527 0.159627 -0.16298 -9.52618 1.06964 1.8064 20.7622 0.360593 -2.92403 
54.429 95.8129 57.3867 75.4909 -40.3976 79.4867 -174.694 50.5899 90.4117 -35.47 9.4054 -3.16913 47.9382 -10.2675 -6.69146 26.0266 3.31701 24.6202 174.142 -0.521653 95.3966 -30.6198 -7.69446 -2.01878 55.8225 2.73703 1.82379 39.4045 -1.34581 -5.52884 -0.459951 8.5862 -89.4043 9.70345 -0.647427 1.23221 -1.96795 -0.592566 1.2595 -24.5012 -0.987801 0.980704 -4.48853 -0.987812 0.980695 89.5763 -36.7508 -104.777 33.2635 -18.4422 41.1941 11.3002 2.91122 -103.33 5.62579 0.208247 -6.66344 -98.2215 -47.0318 66.0698 26.2171 62.3158 -52.6295 16.9503 -25.4774 -94.7233 1.94506 -0.0129162 -2.54453 -10.4963 0.429784 0.909826 20.9031 -0.335729 -3.56185 
63.1387 97.2103 65.8564 72.2417 -41.1012 77.4408 -177.749 45.6993 91.849 -7.7404 9.01819 -3.02873 39.5607 -13.5026 -11.8681 32.1981 6.85688 14.6735 174.578 -4.11252 94.0611 -29.3641 -10.367 -3.51924 52.1873 4.26097 3.09982 34.2928 -1.43835 -8.00483 -0.252355 8.20863 -89.3524 10.456 -0.205652 1.30491 -1.2156 -0.148027 1.31268 -23.7464 -0.588302 1.1828 -3.73374 -0.588292 1.1828 89.8957 -35.5971 -104.582 33.0952 -19.7716 41.219 12.1748 3.08022 -103.706 6.02031 0.236991 -6.39708 -98.6691 -47.4973 65.5736 26.0533 61.9696 -52.2847 14.9199 -25.4788 -95.7129 3.14677 0.143203 0.476332 -10.3249 0.519913 1.67682 19.3609 -0.470893 -4.80063 
71.6673 98.1666 73.862 69.3164 -43.6459 76.1099 178.873 49.8533 96.303 -6.98328 3.18613 -3.21911 46.4687 -11.6451 -10.4658 30.3031 5.44123 16.1435 177.177 -3.47956 94.2297 -38.772 -9.09248 -5.84977 53.0443 3.63487 2.5968 31.6792 -1.25452 -8.33658 0.0288533 7.90346 -89.3329 11.0629 0.366894 1.29233 -0.608596 0.423415 1.27492 -23.1385 -0.03843 1.34285 -3.12582 -0.0384385 1.34283 89.7657 -34.8287 -105.078 31.4783 -21.2657 40.4717 13.4415 3.27462 -104.092 7.14106 0.240435 -6.7934 -98.582 -47.6957 65.7747 27.7942 61.0394 -53.4805 16.8317 -25.4314 -94.9415 3.92405 -0.0026937 -2.75412 -10.6349 1.17318 1.70013 18.1127 0.164262 -5.19882 
79.556 98.2167 81.6301 68.325 -48.5948 76.7129 179.167 49.1765 99.3731 -7.05024 -6.82349 -2.24885 45.9905 -12.0789 -10.3075 24.8905 0.864114 19.6356 -178.128 -0.588107 95.7234 -54.322 -4.08639 -8.2429 53.4183 3.17107 2.1542 30.7279 -1.15904 -8.29552 0.478222 7.79979 -89.3673 11.2666 1.24652 1.1357 -0.404231 1.29528 1.07973 -22.9379 0.847604 1.45779 -2.92522 0.847592 1.45777 89.9268 -33.4923 -105.243 32.068 -22.0328 39.3136 10.9049 3.91547 -104.141 6.88309 0.259082 -5.79686 -98.4621 -47.5819 65.9108 28.8435 60.939 -54.7841 16.6504 -25.5092 -94.9473 6.15674 0.00131376 -3.24443 -11.7081 1.85447 2.2048 18.1539 0.683479 -6.05837 
86.7891 97.5808 89.2492 71.4323 -51.9635 79.4898 -177.219 45.2691 98.1577 -8.19683 0.19597 -3.76761 40.292 -13.3728 -11.085 34.2613 9.04548 15.0542 -174.832 3.55987 96.5316 -72.6347 3.1026 -8.03354 54.3557 2.68215 1.60596 27.9679 -0.99969 -9.13446 0.635621 8.03542 -89.2071 10.7913 1.6317 1.42586 -0.87928 1.69285 1.35265 -23.4127 1.1278 1.85026 -3.40006 1.1278 1.85023 90.0663 -33.5605 -104.956 32.1519 -20.9492 37.3312 11.9833 3.60235 -103.895 7.83313 0.265735 -5.90889 -96.7527 -45.882 67.8742 29.051 60.4975 -56.6298 16.2563 -25.4475 -94.7248 4.14955 0.0154582 -2.49698 -11.803 2.72804 0.689936 17.5305 1.71271 -5.68555 
93.6983 95.7073 96.3867 76.0591 -54.0425 82.6412 -172.903 38.3977 93.3644 -7.66787 6.71195 -1.79096 38.6386 -13.7465 -13.524 28.1892 5.63162 24.1403 -173.538 9.59628 95.802 -92.0662 9.39614 -5.81512 55.2028 1.57525 0.798611 25.3849 -0.621716 -7.70544 0.702127 8.41229 -88.9457 10.0297 1.87889 1.93718 -1.64118 1.96234 1.85263 -24.1701 1.21003 2.41212 -4.15742 1.21002 2.41212 89.6812 -35.8251 -104.895 30.909 -18.8035 36.3712 11.1153 3.11221 -103.328 7.35173 0.217492 -6.32461 -96.7292 -45.1691 67.6595 27.9465 59.8821 -55.5176 16.6358 -25.1643 -94.5958 0.967257 -0.0445297 -2.79291 -13.5544 3.21327 -0.569347 18.9841 2.15353 -5.76836 
100.584 93.2372 102.61 65.3772 -58.0818 70.7102 -170.389 43.9832 90.9674 -20.0821 8.63397 -5.52172 47.1835 -8.58634 -3.48741 27.3595 0.320807 6.58238 -167.312 27.4604 90.0697 -110.924 10.4518 -3.76852 53.2105 0.117629 -0.205621 25.405 -0.626149 -7.75468 0.85246 7.93147 -88.3669 10.979 2.45523 3.00944 -0.692778 2.58524 2.89852 -23.2086 1.43782 3.60752 -3.19599 1.43782 3.60751 89.442 -36.8074 -105.001 30.5839 -17.649 36.7002 10.3218 2.99447 -103.395 6.46237 0.220093 -5.96542 -96.973 -45.4199 67.3759 27.0891 60.015 -53.9164 17.2587 -25.5389 -95.0907 2.50967 -0.00886273 -2.43776 -15.319 4.15123 -0.437229 20.8293 3.06933 -5.36221 
107.801 89.7574 108.601 32.9823 -51.5915 39.7079 -163.857 66.7687 83.4533 -42.449 1.00899 -12.4777 62.7632 1.13846 3.24391 25.5766 -1.62357 4.21716 -141.824 59.0861 64.2268 -125.536 7.87938 -1.44268 47.9222 -1.25675 -1.17041 27.8387 -0.820656 -7.57558 0.640542 5.92708 -87.6694 14.9332 2.42401 4.35367 3.25748 2.61309 4.243 -19.2231 1.00536 4.87964 0.789543 1.00537 4.87964 89.2668 -38.0373 -104.905 29.8651 -18.0822 36.1357 10.6116 3.15029 -103.187 5.6628 0.207799 -6.256 -96.5396 -45.2821 67.989 26.8949 59.9161 -54.2354 16.3862 -25.3042 -94.8985 3.2364 -0.0401733 -3.35176 -15.5487 5.72574 -0.84995 21.8428 4.78805 -4.41212 
115.374 86.0529 115.766 10.4804 -30.4654 19.8195 -52.1695 84.1775 -28.9281 -57.3494 -5.67544 -17.9819 71.2044 4.8355 3.68083 35.2741 6.65762 5.52463 -47.3857 61.1497 -29.3186 -131.402 4.16627 0.16703 43.2606 -1.76552 -1.39925 29.4527 -1.09636 -8.67228 0.170073 3.06682 -87.1613 20.6318 1.86766 5.34914 8.95157 2.10095 5.26209 -13.4958 0.176538 5.66217 6.51689 0.176543 5.66218 89.8001 -36.3624 -104.504 31.8579 -17.3893 35.6575 10.3753 3.10659 -102.124 6.38332 0.204521 -6.20002 -97.3942 -45.8591 66.892 27.9447 58.9155 -54.6563 19.2691 -25.3357 -94.2029 2.38079 -0.00117123 -2.18698 -13.7739 6.72914 1.29202 21.7092 5.33745 -6.33849 
122.995 85.1866 123.806 4.90572 -8.47956 10.0247 -19.5602 71.8298 -66.3545 -57.523 -7.39589 -23.2748 73.8505 7.40789 7.02095 43.9383 13.8447 5.09396 -25.3721 32.6537 -51.486 -127.69 4.42184 -0.631139 42.1361 -1.02792 -0.612547 36.2759 -1.4683 -7.20816 -0.487812 0.674346 -86.5077 25.4391 1.10403 6.94549 13.7504 1.40792 6.89058 -8.63742 -1.02904 6.95695 11.3752 -1.02905 6.95694 89.9067 -35.8116 -104.491 33.7298 -16.2631 36.1997 8.61143 2.6935 -101.775 4.96154 0.184979 -5.96704 -97.8168 -46.2074 66.3784 32.1232 59.1493 -57.4198 18.9223 -25.2309 -93.0689 6.02007 0.0351488 -2.65741 -11.558 7.3431 2.54736 19.8278 5.88125 -6.75927 
130.876 86.0164 131.755 4.53431 3.73205 4.90676 -22.0369 69.1077 -69.6172 -52.5991 -9.507 -25.2838 72.9234 6.78844 7.07475 47.3395 17.8099 7.01873 -17.256 18.6078 -55.8863 -117.414 4.56094 -4.40264 46.1311 -0.199855 0.170303 35.0093 -1.85464 -10.0021 -0.774767 -0.73499 -86.2025 28.2527 0.839249 7.71793 16.5594 1.17711 7.67393 -5.79613 -1.51205 7.61535 14.2165 -1.51205 7.61536 89.7634 -37.2781 -104.272 33.0048 -15.2224 37.5426 9.92713 2.07383 -100.748 5.21518 0.127156 -7.57402 -98.8925 -47.1497 65.1137 30.1476 60.2717 -54.9104 16.5717 -24.9679 -93.5297 7.71961 0.113621 -2.01304 -11.9247 8.0513 3.33972 19.5973 6.87527 -5.18037 
138.086 87.9943 139.066 4.07976 10.121 -0.108655 -29.8188 70.8479 -65.3932 -43.955 -11.0187 -25.0374 67.7318 1.97517 4.65418 43.6981 17.7526 13.5331 -10.0597 13.9423 -55.0882 -100.494 3.36044 -10.4949 45.693 1.34136 1.72216 36.3126 -1.66254 -8.26 -0.666825 -1.64949 -86.1104 30.0603 1.16939 7.83786 18.3667 1.51216 7.77935 -3.9813 -1.23262 7.82822 16.0313 -1.23262 7.82822 89.5899 -37.2281 -104.597 32.3693 -13.909 38.3447 11.2455 2.05757 -100.72 8.38713 0.00534979 -9.2823 -99 -48.1651 65.3284 22.1552 61.2096 -48.1908 19.0598 -25.0953 -94.367 5.13108 0.0148337 -2.73897 -11.8815 8.82076 4.51612 18.4419 8.02608 -3.03715 
